<svg width="20" height="20" viewBox="0 0 20 20" fill="none" xmlns="http://www.w3.org/2000/svg">
<path d="M4.66126 16C4.4765 15.9997 4.30037 15.9218 4.17584 15.7853C4.04902 15.6499 3.986 15.4668 4.00262 15.2821L4.16399 13.5077L11.6185 6.05581L13.9481 8.38477L6.49558 15.836L4.7212 15.9974C4.70078 15.9993 4.68036 16 4.66126 16ZM14.4131 7.91911L12.0842 5.59015L13.4811 4.19317C13.6047 4.06949 13.7723 4 13.9471 4C14.1219 4 14.2896 4.06949 14.4131 4.19317L15.8101 5.59015C15.9338 5.71369 16.0033 5.88133 16.0033 6.05614C16.0033 6.23095 15.9338 6.39859 15.8101 6.52213L14.4138 7.91845L14.4131 7.91911Z" fill="white"/>
</svg>
